# Blender v2.79 (sub 0) OBJ File: 'untitled.blend'
# www.blender.org
o P-51_Mustang_Proppeler
v -1.029424 -0.041782 -1.744965
v -1.057963 -0.082632 -1.723419
v -1.098436 0.025628 -1.701221
v -1.126953 -0.015221 -1.679678
v 0.149514 0.367987 0.076232
v 0.091531 0.361848 0.152238
v 0.314095 0.116138 0.129280
v 0.186606 0.102641 0.296394
v 0.002025 0.359155 0.180918
v -0.010195 0.096720 0.359453
v -0.084816 0.360935 0.151316
v -0.201136 0.100634 0.294369
v -0.135822 0.366509 0.074742
v -0.313283 0.112891 0.126002
v -0.131509 0.373749 -0.019557
v -0.303801 0.128809 -0.081334
v -0.073526 0.379888 -0.095561
v -0.176312 0.142306 -0.248449
v 0.015980 0.382581 -0.124240
v 0.020489 0.148227 -0.311507
v 0.102821 0.380801 -0.094640
v 0.211429 0.144313 -0.246423
v 0.153826 0.375226 -0.018066
v 0.323577 0.132055 -0.078058
v 0.019364 -0.246512 -0.430919
v 0.274233 -0.251739 -0.344045
v 0.423929 -0.268100 -0.119309
v 0.411273 -0.289347 0.157448
v 0.241099 -0.307363 0.380514
v -0.021592 -0.315267 0.464686
v -0.276461 -0.310040 0.377811
v -0.426158 -0.293681 0.153074
v -0.413502 -0.272434 -0.123682
v -0.243327 -0.254418 -0.346749
v 0.010919 0.494304 0.030507
v -0.276461 -0.310040 0.377811
v -0.426158 -0.293681 0.153074
v -0.021592 -0.315267 0.464686
v 0.411273 -0.289347 0.157448
v -0.243327 -0.254418 -0.346749
v 0.274233 -0.251739 -0.344045
v 0.019364 -0.246512 -0.430919
v 0.241099 -0.307363 0.380514
v 0.423929 -0.268100 -0.119309
v -0.335821 -0.036016 -0.065360
v -0.041270 -0.039159 -0.352672
v -1.111051 0.067788 -1.626953
v -0.962968 -0.089900 -1.749730
v -1.029424 -0.041782 -1.744965
v -1.098436 0.025628 -1.701221
v 0.340928 -0.045423 0.106889
v 0.045548 -0.095749 0.393262
v 1.115806 -0.171909 1.668084
v 0.962516 -0.349615 1.784967
v 1.030487 -0.300151 1.781916
v 1.101705 -0.225453 1.740670
v 1.721022 -0.036173 -1.198287
v 1.758879 -0.112329 -1.130016
v 1.649993 0.012091 -1.207988
v 1.759199 -0.166316 -1.062677
v 0.367747 -0.112837 -0.042249
v 0.097812 -0.065556 -0.329907
v 0.101389 -0.013567 -0.326893
v 0.371328 -0.060838 -0.039277
v 1.671335 0.049092 -1.179843
v 1.780538 -0.129327 -1.034513
v 1.780228 -0.075323 -1.101845
v 1.742369 0.000834 -1.170138
v -1.098436 0.025628 -1.701221
v -1.126953 -0.015221 -1.679678
v -1.111051 0.067788 -1.626953
v -1.139564 0.026947 -1.605415
v -0.338810 -0.088384 -0.063375
v -0.335821 -0.036016 -0.065360
v -1.139564 0.026947 -1.605415
v -1.111051 0.067788 -1.626953
v -0.044219 -0.091536 -0.350686
v -0.041270 -0.039159 -0.352672
v -0.338810 -0.088384 -0.063375
v -0.335821 -0.036016 -0.065360
v -0.991498 -0.130733 -1.728193
v -0.962968 -0.089900 -1.749730
v -0.044219 -0.091536 -0.350686
v -0.041270 -0.039159 -0.352672
v -1.126953 -0.015221 -1.679678
v -1.057963 -0.082632 -1.723419
v -1.139564 0.026947 -1.605415
v -0.991498 -0.130733 -1.728193
v -0.044219 -0.091536 -0.350686
v -0.338810 -0.088384 -0.063375
v -1.759026 -0.307589 1.165600
v -1.779164 -0.266610 1.138796
v -1.760861 -0.351154 1.096543
v -1.780989 -0.310188 1.069750
v -1.718963 -0.241639 1.236366
v -1.739100 -0.200659 1.209587
v -1.759026 -0.307589 1.165600
v -1.779164 -0.266610 1.138796
v -1.739100 -0.200659 1.209587
v -1.718963 -0.241639 1.236366
v -1.666580 -0.153214 1.220973
v -1.646448 -0.194185 1.247749
v -0.094323 -0.120150 0.369605
v -0.096282 -0.067872 0.368424
v -1.646448 -0.194185 1.247749
v -1.666580 -0.153214 1.220973
v -0.365088 -0.126353 0.081007
v -0.367050 -0.074069 0.079868
v -0.094323 -0.120150 0.369605
v -0.096282 -0.067872 0.368424
v -1.760861 -0.351154 1.096543
v -1.780989 -0.310188 1.069750
v -0.365088 -0.126353 0.081007
v -0.367050 -0.074069 0.079868
v -1.718963 -0.241639 1.236366
v -1.759026 -0.307589 1.165600
v -1.646448 -0.194185 1.247749
v -1.760861 -0.351154 1.096543
v -0.365088 -0.126353 0.081007
v -0.094323 -0.120150 0.369605
v -0.096282 -0.067872 0.368424
v -0.367050 -0.074069 0.079868
v -1.666580 -0.153214 1.220973
v -1.780989 -0.310188 1.069750
v -1.779164 -0.266610 1.138796
v -1.739100 -0.200659 1.209587
v 1.057817 -0.337287 1.759002
v 1.030487 -0.300151 1.781916
v 0.989837 -0.386735 1.762062
v 0.962516 -0.349615 1.784967
v 1.129012 -0.262592 1.717755
v 1.101705 -0.225453 1.740670
v 1.057817 -0.337287 1.759002
v 1.030487 -0.300151 1.781916
v 1.101705 -0.225453 1.740670
v 1.129012 -0.262592 1.717755
v 1.115806 -0.171909 1.668084
v 1.143108 -0.209039 1.645175
v 0.342300 -0.097320 0.103073
v 0.340928 -0.045423 0.106889
v 1.143108 -0.209039 1.645175
v 1.115806 -0.171909 1.668084
v 0.046877 -0.147657 0.389442
v 0.045548 -0.095749 0.393262
v 0.342300 -0.097320 0.103073
v 0.340928 -0.045423 0.106889
v 0.989837 -0.386735 1.762062
v 0.962516 -0.349615 1.784967
v 0.046877 -0.147657 0.389442
v 0.045548 -0.095749 0.393262
v 1.129012 -0.262592 1.717755
v 1.057817 -0.337287 1.759002
v 1.143108 -0.209039 1.645175
v 0.989837 -0.386735 1.762062
v 0.046877 -0.147657 0.389442
v 0.342300 -0.097320 0.103073
v 1.758879 -0.112329 -1.130016
v 1.780228 -0.075323 -1.101845
v 1.759199 -0.166316 -1.062677
v 1.780538 -0.129327 -1.034513
v 1.721022 -0.036173 -1.198287
v 1.742369 0.000834 -1.170138
v 1.758879 -0.112329 -1.130016
v 1.780228 -0.075323 -1.101845
v 1.742369 0.000834 -1.170138
v 1.721022 -0.036173 -1.198287
v 1.671335 0.049092 -1.179843
v 1.649993 0.012091 -1.207988
v 0.097812 -0.065556 -0.329907
v 0.101389 -0.013567 -0.326893
v 1.649993 0.012091 -1.207988
v 1.671335 0.049092 -1.179843
v 0.367747 -0.112837 -0.042249
v 0.371328 -0.060838 -0.039277
v 0.097812 -0.065556 -0.329907
v 0.101389 -0.013567 -0.326893
v 1.759199 -0.166316 -1.062677
v 1.780538 -0.129327 -1.034513
v 0.367747 -0.112837 -0.042249
v 0.371328 -0.060838 -0.039277
v -0.413502 -0.272434 -0.123682
v -1.057963 -0.082632 -1.723419
v -1.029424 -0.041782 -1.744965
v -0.991498 -0.130733 -1.728193
v -0.962968 -0.089900 -1.749730
vt 0.043066 0.848015
vt 0.043618 0.850746
vt 0.029492 0.847356
vt 0.030047 0.850087
vt 0.922142 0.130518
vt 0.921721 0.124624
vt 0.958959 0.130516
vt 0.959083 0.113735
vt 0.922467 0.119500
vt 0.959219 0.102974
vt 0.922864 0.124666
vt 0.959029 0.114780
vt 0.922295 0.130745
vt 0.959013 0.125483
vt 0.922142 0.140911
vt 0.958959 0.140841
vt 0.921721 0.146885
vt 0.959083 0.157628
vt 0.922464 0.151980
vt 0.959219 0.168378
vt 0.922864 0.146794
vt 0.959029 0.156569
vt 0.922295 0.140734
vt 0.959013 0.145870
vt 0.995705 0.176767
vt 0.995705 0.162680
vt 0.995705 0.146245
vt 0.995705 0.125114
vt 0.995705 0.108679
vt 0.995705 0.094592
vt 0.995705 0.108679
vt 0.995705 0.125114
vt 0.995705 0.146245
vt 0.995705 0.162680
vt 0.913889 0.134874
vt 0.803446 0.947546
vt 0.808595 0.943804
vt 0.801478 0.953599
vt 0.808595 0.963395
vt 0.820110 0.947546
vt 0.820110 0.959653
vt 0.822078 0.953599
vt 0.803446 0.959653
vt 0.814961 0.963395
vt 0.375032 0.651249
vt 0.365853 0.677825
vt 0.232327 0.651039
vt 0.228766 0.668093
vt 0.226348 0.662663
vt 0.226932 0.655311
vt 0.375032 0.651249
vt 0.365853 0.677825
vt 0.232327 0.651039
vt 0.228766 0.668093
vt 0.226348 0.662663
vt 0.226932 0.655311
vt 0.226932 0.655311
vt 0.226348 0.662663
vt 0.232327 0.651039
vt 0.228766 0.668093
vt 0.365853 0.677825
vt 0.375032 0.651249
vt 0.375032 0.651249
vt 0.365853 0.677825
vt 0.232327 0.651039
vt 0.228766 0.668093
vt 0.226348 0.662663
vt 0.226932 0.655311
vt 0.234122 0.669378
vt 0.234122 0.662330
vt 0.228888 0.669378
vt 0.228888 0.662330
vt 0.374794 0.662330
vt 0.374794 0.669378
vt 0.228888 0.662330
vt 0.228888 0.669378
vt 0.347596 0.662330
vt 0.347596 0.669378
vt 0.374794 0.662330
vt 0.374794 0.669378
vt 0.229669 0.662237
vt 0.229669 0.669285
vt 0.347596 0.662330
vt 0.347596 0.669378
vt 0.226932 0.655311
vt 0.226348 0.662663
vt 0.232327 0.651039
vt 0.228766 0.668093
vt 0.365853 0.677825
vt 0.375032 0.651249
vt 0.043515 0.850274
vt 0.042963 0.847543
vt 0.055004 0.849980
vt 0.054452 0.847250
vt 0.029944 0.849614
vt 0.029389 0.846884
vt 0.043515 0.850274
vt 0.042963 0.847543
vt 0.234122 0.669378
vt 0.234122 0.662330
vt 0.228888 0.669378
vt 0.228888 0.662330
vt 0.374794 0.662330
vt 0.374794 0.669378
vt 0.228888 0.662330
vt 0.228888 0.669378
vt 0.347596 0.662330
vt 0.347596 0.669378
vt 0.374794 0.662330
vt 0.374794 0.669378
vt 0.229669 0.662237
vt 0.229669 0.669285
vt 0.347596 0.662330
vt 0.347596 0.669378
vt 0.226932 0.655311
vt 0.226348 0.662663
vt 0.232327 0.651039
vt 0.228766 0.668093
vt 0.365853 0.677825
vt 0.375032 0.651249
vt 0.375032 0.651249
vt 0.365853 0.677825
vt 0.232327 0.651039
vt 0.228766 0.668093
vt 0.226348 0.662663
vt 0.226932 0.655311
vt 0.041187 0.847046
vt 0.041739 0.849777
vt 0.029698 0.847340
vt 0.030250 0.850070
vt 0.054758 0.847706
vt 0.055313 0.850436
vt 0.041187 0.847046
vt 0.041739 0.849777
vt 0.234122 0.669378
vt 0.234122 0.662330
vt 0.228888 0.669378
vt 0.228888 0.662330
vt 0.374794 0.662330
vt 0.374794 0.669378
vt 0.228888 0.662330
vt 0.228888 0.669378
vt 0.347596 0.662330
vt 0.347596 0.669378
vt 0.374794 0.662330
vt 0.374794 0.669378
vt 0.229669 0.662237
vt 0.229669 0.669285
vt 0.347596 0.662330
vt 0.347596 0.669378
vt 0.226932 0.655311
vt 0.226348 0.662663
vt 0.232327 0.651039
vt 0.228766 0.668093
vt 0.365853 0.677825
vt 0.375032 0.651249
vt 0.040672 0.847194
vt 0.041224 0.849925
vt 0.029183 0.847487
vt 0.029735 0.850217
vt 0.054244 0.847854
vt 0.054798 0.850584
vt 0.040672 0.847194
vt 0.041224 0.849925
vt 0.234122 0.669378
vt 0.234122 0.662330
vt 0.228888 0.669378
vt 0.228888 0.662330
vt 0.374794 0.662330
vt 0.374794 0.669378
vt 0.228888 0.662330
vt 0.228888 0.669378
vt 0.347596 0.662330
vt 0.347596 0.669378
vt 0.374794 0.662330
vt 0.374794 0.669378
vt 0.229669 0.662237
vt 0.229669 0.669285
vt 0.347596 0.662330
vt 0.347596 0.669378
vt 0.814961 0.943804
vt 0.043618 0.850746
vt 0.043066 0.848015
vt 0.055107 0.850453
vt 0.054555 0.847723
vn -0.5635 -0.0415 -0.8251
vn -0.5637 -0.0416 -0.8250
vn 0.6489 0.5375 0.5385
vn 0.2425 0.5379 0.8073
vn -0.2590 0.5515 0.7929
vn -0.6672 0.5650 0.4855
vn -0.8187 0.5742 0.0066
vn -0.6667 0.5853 -0.4614
vn -0.2605 0.5996 -0.7567
vn 0.2681 0.6046 -0.7501
vn 0.2681 0.6045 -0.7501
vn 0.6929 0.5870 -0.4188
vn 0.3153 0.2740 -0.9086
vn 0.8127 0.2577 -0.5226
vn 0.8265 0.5571 0.0806
vn 0.9696 0.2367 0.0625
vn 0.7657 0.2254 0.6024
vn 0.2908 0.2292 0.9289
vn -0.3085 0.2434 0.9196
vn -0.7955 0.2574 0.5486
vn -0.9637 0.2660 -0.0237
vn -0.7755 0.2721 -0.5697
vn -0.3007 0.2769 -0.9126
vn 0.2099 0.7960 -0.5678
vn 0.5456 0.7799 -0.3067
vn 0.6551 0.7505 0.0876
vn 0.5150 0.7285 0.4517
vn 0.1904 0.7246 0.6623
vn -0.2056 0.7340 0.6473
vn -0.5276 0.7463 0.4058
vn -0.6516 0.7580 0.0284
vn -0.5331 0.7728 -0.3443
vn -0.2086 0.7897 -0.5770
vn 0.0056 -0.9971 -0.0763
vn 0.0508 0.9979 0.0411
vn 0.5167 0.7726 -0.3690
vn 0.5336 0.7713 -0.3471
vn 0.5333 0.7713 -0.3473
vn -0.0615 0.9919 0.1109
vn -0.4982 0.7337 0.4621
vn -0.5148 0.7347 0.4418
vn -0.5146 0.7347 0.4420
vn -0.4070 -0.7135 -0.5703
vn -0.4071 -0.7136 -0.5702
vn -0.4319 -0.7136 -0.5516
vn -0.0278 -0.9902 -0.1367
vn 0.0324 0.9907 0.1324
vn 0.4269 0.7137 0.5554
vn 0.4067 0.7136 0.5705
vn 0.4069 0.7136 0.5702
vn -0.8424 0.3945 -0.3670
vn -0.8424 0.3945 -0.3671
vn -0.8833 0.0680 0.4638
vn -0.6585 0.6551 0.3705
vn 0.6981 -0.0122 0.7159
vn 0.6981 -0.0127 0.7159
vn 0.6291 -0.6579 -0.4139
vn 0.8339 -0.0677 -0.5477
vn -0.5334 -0.7713 0.3474
vn -0.5332 -0.7713 0.3475
vn -0.5125 -0.7728 0.3744
vn -0.0554 -0.9974 -0.0458
vn -0.9247 -0.3103 0.2203
vn -0.9248 -0.3103 0.2203
vn -0.8419 -0.0635 0.5358
vn -0.8420 -0.0634 0.5357
vn -0.3758 0.3705 0.8495
vn -0.3758 0.3705 0.8494
vn 0.4907 0.0381 0.8705
vn 0.3454 0.6264 0.6988
vn 0.7291 0.0124 -0.6843
vn 0.7290 0.0119 -0.6844
vn -0.3878 -0.6304 -0.6725
vn -0.5687 -0.0392 -0.8216
vn 0.4289 -0.7691 0.4739
vn 0.4290 -0.7691 0.4738
vn 0.4535 -0.7673 0.4534
vn 0.0391 -0.9991 -0.0152
vn -0.0437 0.9989 0.0195
vn -0.4486 0.7677 -0.4576
vn -0.4286 0.7691 -0.4741
vn -0.4288 0.7691 -0.4739
vn 0.2879 -0.3404 0.8951
vn 0.5671 -0.0883 0.8189
vn 0.5669 -0.0882 0.8191
vn 0.8348 0.3530 0.4226
vn 0.8347 0.3531 0.4226
vn 0.8877 0.0570 -0.4569
vn 0.6809 0.6754 -0.2832
vn -0.6986 0.0347 -0.7146
vn -0.6987 0.0341 -0.7146
vn -0.6521 -0.6830 0.3290
vn -0.8386 -0.0613 0.5413
vn 0.5146 -0.7346 -0.4421
vn 0.5145 -0.7347 -0.4422
vn 0.4940 -0.7333 -0.4671
vn 0.0661 -0.9921 -0.1062
vn 0.9087 -0.3235 -0.2637
vn 0.9088 -0.3235 -0.2637
vn 0.8371 -0.0702 -0.5425
vn 0.8372 -0.0701 -0.5423
vn 0.3885 0.4054 -0.8275
vn -0.4938 0.0842 -0.8655
vn -0.3675 0.6880 -0.6258
vn -0.7283 0.0110 0.6852
vn -0.7283 0.0104 0.6852
vn 0.4104 -0.6904 0.5958
vn 0.5719 -0.0860 0.8158
vn -0.2760 -0.2904 -0.9162
usemtl BodyTexture_1
s off
f 1/1/1 2/2/1 3/3/1
f 4/4/2 3/3/2 2/2/2
f 5/5/3 6/6/3 7/7/3
f 8/8/3 7/7/3 6/6/3
f 6/6/4 9/9/4 8/8/4
f 10/10/4 8/8/4 9/9/4
f 9/9/5 11/11/5 10/10/5
f 12/12/5 10/10/5 11/11/5
f 11/11/6 13/13/6 12/12/6
f 14/14/6 12/12/6 13/13/6
f 13/13/7 15/15/7 14/14/7
f 16/16/7 14/14/7 15/15/7
f 15/15/8 17/17/8 16/16/8
f 18/18/8 16/16/8 17/17/8
f 17/17/9 19/19/9 18/18/9
f 20/20/9 18/18/9 19/19/9
f 19/19/10 21/21/10 20/20/10
f 22/22/11 20/20/11 21/21/11
f 21/21/12 23/23/12 22/22/12
f 24/24/12 22/22/12 23/23/12
f 20/20/13 22/22/13 25/25/13
f 26/26/13 25/25/13 22/22/13
f 22/22/14 24/24/14 26/26/14
f 27/27/14 26/26/14 24/24/14
f 23/23/15 5/5/15 24/24/15
f 7/7/15 24/24/15 5/5/15
f 24/24/16 7/7/16 27/27/16
f 28/28/16 27/27/16 7/7/16
f 7/7/17 8/8/17 28/28/17
f 29/29/17 28/28/17 8/8/17
f 8/8/18 10/10/18 29/29/18
f 30/30/18 29/29/18 10/10/18
f 10/10/19 12/12/19 30/30/19
f 31/31/19 30/30/19 12/12/19
f 12/12/20 14/14/20 31/31/20
f 32/32/20 31/31/20 14/14/20
f 14/14/21 16/16/21 32/32/21
f 33/33/21 32/32/21 16/16/21
f 16/16/22 18/18/22 33/33/22
f 34/34/22 33/33/22 18/18/22
f 18/18/23 20/20/23 34/34/23
f 25/25/23 34/34/23 20/20/23
f 35/35/24 21/21/24 19/19/24
f 35/35/25 23/23/25 21/21/25
f 35/35/26 5/5/26 23/23/26
f 35/35/27 6/6/27 5/5/27
f 35/35/28 9/9/28 6/6/28
f 35/35/29 11/11/29 9/9/29
f 35/35/30 13/13/30 11/11/30
f 35/35/31 15/15/31 13/13/31
f 35/35/32 17/17/32 15/15/32
f 35/35/33 19/19/33 17/17/33
f 36/36/34 37/37/34 38/38/34
f 37/37/34 39/39/34 38/38/34
f 40/40/34 39/39/34 37/37/34
f 41/41/34 39/39/34 40/40/34
f 42/42/34 41/41/34 40/40/34
f 38/38/34 39/39/34 43/43/34
f 44/44/34 39/39/34 41/41/34
f 45/45/35 46/46/35 47/47/35
f 46/46/36 48/48/36 47/47/36
f 48/48/37 49/49/37 47/47/37
f 49/49/38 50/50/38 47/47/38
f 51/51/39 52/52/39 53/53/39
f 52/52/40 54/54/40 53/53/40
f 54/54/41 55/55/41 53/53/41
f 55/55/42 56/56/42 53/53/42
f 57/57/43 58/58/43 59/59/43
f 58/58/44 60/60/44 59/59/44
f 60/60/45 61/61/45 59/59/45
f 61/61/46 62/62/46 59/59/46
f 63/63/47 64/64/47 65/65/47
f 64/64/48 66/66/48 65/65/48
f 66/66/49 67/67/49 65/65/49
f 67/67/50 68/68/50 65/65/50
f 69/69/51 70/70/51 71/71/51
f 72/72/52 71/71/52 70/70/52
f 73/73/53 74/74/53 75/75/53
f 76/76/54 75/75/54 74/74/54
f 77/77/55 78/78/55 79/79/55
f 80/80/56 79/79/56 78/78/56
f 81/81/57 82/82/57 83/83/57
f 82/82/58 84/84/58 83/83/58
f 85/85/59 86/86/59 87/87/59
f 86/86/60 88/88/60 87/87/60
f 88/88/61 89/89/61 87/87/61
f 89/89/62 90/90/62 87/87/62
f 91/91/63 92/92/63 93/93/63
f 94/94/64 93/93/64 92/92/64
f 95/95/65 96/96/65 97/97/65
f 98/98/66 97/97/66 96/96/66
f 99/99/67 100/100/67 101/101/67
f 102/102/68 101/101/68 100/100/68
f 103/103/69 104/104/69 105/105/69
f 106/106/70 105/105/70 104/104/70
f 107/107/71 108/108/71 109/109/71
f 110/110/72 109/109/72 108/108/72
f 111/111/73 112/112/73 113/113/73
f 112/112/74 114/114/74 113/113/74
f 115/115/75 116/116/75 117/117/75
f 116/116/76 118/118/76 117/117/76
f 118/118/77 119/119/77 117/117/77
f 119/119/78 120/120/78 117/117/78
f 121/121/79 122/122/79 123/123/79
f 122/122/80 124/124/80 123/123/80
f 124/124/81 125/125/81 123/123/81
f 125/125/82 126/126/82 123/123/82
f 127/127/83 128/128/83 129/129/83
f 130/130/83 129/129/83 128/128/83
f 131/131/84 132/132/84 133/133/84
f 134/134/85 133/133/85 132/132/85
f 135/135/86 136/136/86 137/137/86
f 138/138/87 137/137/87 136/136/87
f 139/139/88 140/140/88 141/141/88
f 142/142/89 141/141/89 140/140/89
f 143/143/90 144/144/90 145/145/90
f 146/146/91 145/145/91 144/144/91
f 147/147/92 148/148/92 149/149/92
f 148/148/93 150/150/93 149/149/93
f 151/151/94 152/152/94 153/153/94
f 152/152/95 154/154/95 153/153/95
f 154/154/96 155/155/96 153/153/96
f 155/155/97 156/156/97 153/153/97
f 157/157/98 158/158/98 159/159/98
f 160/160/99 159/159/99 158/158/99
f 161/161/100 162/162/100 163/163/100
f 164/164/101 163/163/101 162/162/101
f 165/165/102 166/166/102 167/167/102
f 168/168/102 167/167/102 166/166/102
f 169/169/103 170/170/103 171/171/103
f 172/172/104 171/171/104 170/170/104
f 173/173/105 174/174/105 175/175/105
f 176/176/106 175/175/106 174/174/106
f 177/177/107 178/178/107 179/179/107
f 178/178/108 180/180/108 179/179/108
f 181/181/34 40/40/34 37/37/34
f 182/182/109 183/183/109 184/184/109
f 185/185/109 184/184/109 183/183/109
